<svg xmlns="http://www.w3.org/2000/svg" viewBox="0 0 600 600" width="100%" height="100%">
  <defs>
    <radialGradient id="bgGrad1" cx="50%" cy="45%" r="65%">
      <stop offset="0%" stop-color="#4a1711" />
      <stop offset="60%" stop-color="#1c0a08" />
      <stop offset="100%" stop-color="#080403" />
    </radialGradient>
    <radialGradient id="glowCenter" cx="50%" cy="50%" r="50%">
      <stop offset="0%" stop-color="#f59e0b" stop-opacity="0.35" />
      <stop offset="100%" stop-color="#78350f" stop-opacity="0" />
    </radialGradient>
    <pattern id="kotpadWeave" width="24" height="24" patternUnits="userSpaceOnUse">
      <path d="M0 12 L12 0 L24 12 L12 24 Z" fill="none" stroke="#d97706" stroke-width="1.2" opacity="0.18" />
      <circle cx="12" cy="12" r="2" fill="#f59e0b" opacity="0.25" />
    </pattern>
  </defs>

  <!-- Background -->
  <rect width="600" height="600" fill="url(#bgGrad1)" />
  <rect width="600" height="600" fill="url(#kotpadWeave)" />
  <circle cx="300" cy="300" r="260" fill="url(#glowCenter)" />

  <!-- Sacred Geometric Tribal Circles -->
  <circle cx="300" cy="300" r="230" fill="none" stroke="#d97706" stroke-width="2" stroke-dasharray="6 8" opacity="0.4" />
  <circle cx="300" cy="300" r="200" fill="none" stroke="#b45309" stroke-width="1.5" opacity="0.5" />
  <circle cx="300" cy="300" r="160" fill="none" stroke="#f59e0b" stroke-width="2" stroke-dasharray="14 6" opacity="0.35" />

  <!-- Stylized Sun / Bonfire Center -->
  <circle cx="300" cy="270" r="64" fill="#b45309" opacity="0.7" />
  <circle cx="300" cy="270" r="48" fill="#d97706" opacity="0.85" />
  <circle cx="300" cy="270" r="32" fill="#fbbf24" opacity="0.95" />
  <circle cx="300" cy="270" r="16" fill="#fef08a" />

  <!-- Sun Rays Saura style -->
  <g stroke="#f59e0b" stroke-width="2.5" opacity="0.6" stroke-linecap="round">
    <line x1="300" y1="185" x2="300" y2="165" />
    <line x1="300" y1="355" x2="300" y2="375" />
    <line x1="215" y1="270" x2="195" y2="270" />
    <line x1="385" y1="270" x2="405" y2="270" />
    <line x1="240" y1="210" x2="225" y2="195" />
    <line x1="360" y1="210" x2="375" y2="195" />
    <line x1="240" y1="330" x2="225" y2="345" />
    <line x1="360" y1="330" x2="375" y2="345" />
  </g>

  <!-- Dhemsa Dancing Chain -->
  <g transform="translate(-10, -20)">
    
      <!-- Dancer 0 -->
      <circle cx="50" cy="332" r="9" fill="#fcd34d" opacity="0.9" />
      <path d="M50 341 L36 396 L64 396 Z" fill="#f59e0b" opacity="0.85"/>
      <path d="M50 396 L38 422 L62 422 Z" fill="#d97706" opacity="0.85"/>
      <!-- Legs in dynamic Dhemsa step -->
      <path d="M44 422 L38 448 L30 452" stroke="#fcd34d" stroke-width="3.5" stroke-linecap="round" fill="none" />
      <path d="M56 422 L66 444 L58 452" stroke="#fcd34d" stroke-width="3.5" stroke-linecap="round" fill="none" />
      <!-- Linked arms -->
      <path d="M38 398 Q22 390 8 398" stroke="#fef08a" stroke-width="3" stroke-linecap="round" fill="none" opacity="0.8" />
    
      <!-- Dancer 1 -->
      <circle cx="92" cy="340.6082730907943" r="9" fill="#fcd34d" opacity="0.9" />
      <path d="M92 349.6082730907943 L78 404.6082730907943 L106 404.6082730907943 Z" fill="#f59e0b" opacity="0.85"/>
      <path d="M92 404.6082730907943 L80 430.6082730907943 L104 430.6082730907943 Z" fill="#d97706" opacity="0.85"/>
      <!-- Legs in dynamic Dhemsa step -->
      <path d="M86 430.6082730907943 L80 456.6082730907943 L72 460.6082730907943" stroke="#fcd34d" stroke-width="3.5" stroke-linecap="round" fill="none" />
      <path d="M98 430.6082730907943 L108 452.6082730907943 L100 460.6082730907943" stroke="#fcd34d" stroke-width="3.5" stroke-linecap="round" fill="none" />
      <!-- Linked arms -->
      <path d="M80 406.6082730907943 Q64 398.6082730907943 50 406.6082730907943" stroke="#fef08a" stroke-width="3" stroke-linecap="round" fill="none" opacity="0.8" />
    
      <!-- Dancer 2 -->
      <circle cx="134" cy="343.9948832364981" r="9" fill="#fcd34d" opacity="0.9" />
      <path d="M134 352.9948832364981 L120 407.9948832364981 L148 407.9948832364981 Z" fill="#f59e0b" opacity="0.85"/>
      <path d="M134 407.9948832364981 L122 433.9948832364981 L146 433.9948832364981 Z" fill="#d97706" opacity="0.85"/>
      <!-- Legs in dynamic Dhemsa step -->
      <path d="M128 433.9948832364981 L122 459.9948832364981 L114 463.9948832364981" stroke="#fcd34d" stroke-width="3.5" stroke-linecap="round" fill="none" />
      <path d="M140 433.9948832364981 L150 455.9948832364981 L142 463.9948832364981" stroke="#fcd34d" stroke-width="3.5" stroke-linecap="round" fill="none" />
      <!-- Linked arms -->
      <path d="M122 409.9948832364981 Q106 401.9948832364981 92 409.9948832364981" stroke="#fef08a" stroke-width="3" stroke-linecap="round" fill="none" opacity="0.8" />
    
      <!-- Dancer 3 -->
      <circle cx="176" cy="340.10555816661383" r="9" fill="#fcd34d" opacity="0.9" />
      <path d="M176 349.10555816661383 L162 404.10555816661383 L190 404.10555816661383 Z" fill="#f59e0b" opacity="0.85"/>
      <path d="M176 404.10555816661383 L164 430.10555816661383 L188 430.10555816661383 Z" fill="#d97706" opacity="0.85"/>
      <!-- Legs in dynamic Dhemsa step -->
      <path d="M170 430.10555816661383 L164 456.10555816661383 L156 460.10555816661383" stroke="#fcd34d" stroke-width="3.5" stroke-linecap="round" fill="none" />
      <path d="M182 430.10555816661383 L192 452.10555816661383 L184 460.10555816661383" stroke="#fcd34d" stroke-width="3.5" stroke-linecap="round" fill="none" />
      <!-- Linked arms -->
      <path d="M164 406.10555816661383 Q148 398.10555816661383 134 406.10555816661383" stroke="#fef08a" stroke-width="3" stroke-linecap="round" fill="none" opacity="0.8" />
    
      <!-- Dancer 4 -->
      <circle cx="218" cy="331.29951027886904" r="9" fill="#fcd34d" opacity="0.9" />
      <path d="M218 340.29951027886904 L204 395.29951027886904 L232 395.29951027886904 Z" fill="#f59e0b" opacity="0.85"/>
      <path d="M218 395.29951027886904 L206 421.29951027886904 L230 421.29951027886904 Z" fill="#d97706" opacity="0.85"/>
      <!-- Legs in dynamic Dhemsa step -->
      <path d="M212 421.29951027886904 L206 447.29951027886904 L198 451.29951027886904" stroke="#fcd34d" stroke-width="3.5" stroke-linecap="round" fill="none" />
      <path d="M224 421.29951027886904 L234 443.29951027886904 L226 451.29951027886904" stroke="#fcd34d" stroke-width="3.5" stroke-linecap="round" fill="none" />
      <!-- Linked arms -->
      <path d="M206 397.29951027886904 Q190 389.29951027886904 176 397.29951027886904" stroke="#fef08a" stroke-width="3" stroke-linecap="round" fill="none" opacity="0.8" />
    
      <!-- Dancer 5 -->
      <circle cx="260" cy="322.91837005630487" r="9" fill="#fcd34d" opacity="0.9" />
      <path d="M260 331.91837005630487 L246 386.91837005630487 L274 386.91837005630487 Z" fill="#f59e0b" opacity="0.85"/>
      <path d="M260 386.91837005630487 L248 412.91837005630487 L272 412.91837005630487 Z" fill="#d97706" opacity="0.85"/>
      <!-- Legs in dynamic Dhemsa step -->
      <path d="M254 412.91837005630487 L248 438.91837005630487 L240 442.91837005630487" stroke="#fcd34d" stroke-width="3.5" stroke-linecap="round" fill="none" />
      <path d="M266 412.91837005630487 L276 434.91837005630487 L268 442.91837005630487" stroke="#fcd34d" stroke-width="3.5" stroke-linecap="round" fill="none" />
      <!-- Linked arms -->
      <path d="M248 388.91837005630487 Q232 380.91837005630487 218 388.91837005630487" stroke="#fef08a" stroke-width="3" stroke-linecap="round" fill="none" opacity="0.8" />
    
      <!-- Dancer 6 -->
      <circle cx="302" cy="320.0460246939699" r="9" fill="#fcd34d" opacity="0.9" />
      <path d="M302 329.0460246939699 L288 384.0460246939699 L316 384.0460246939699 Z" fill="#f59e0b" opacity="0.85"/>
      <path d="M302 384.0460246939699 L290 410.0460246939699 L314 410.0460246939699 Z" fill="#d97706" opacity="0.85"/>
      <!-- Legs in dynamic Dhemsa step -->
      <path d="M296 410.0460246939699 L290 436.0460246939699 L282 440.0460246939699" stroke="#fcd34d" stroke-width="3.5" stroke-linecap="round" fill="none" />
      <path d="M308 410.0460246939699 L318 432.0460246939699 L310 440.0460246939699" stroke="#fcd34d" stroke-width="3.5" stroke-linecap="round" fill="none" />
      <!-- Linked arms -->
      <path d="M290 386.0460246939699 Q274 378.0460246939699 260 386.0460246939699" stroke="#fef08a" stroke-width="3" stroke-linecap="round" fill="none" opacity="0.8" />
    
      <!-- Dancer 7 -->
      <circle cx="344" cy="324.42480034553216" r="9" fill="#fcd34d" opacity="0.9" />
      <path d="M344 333.42480034553216 L330 388.42480034553216 L358 388.42480034553216 Z" fill="#f59e0b" opacity="0.85"/>
      <path d="M344 388.42480034553216 L332 414.42480034553216 L356 414.42480034553216 Z" fill="#d97706" opacity="0.85"/>
      <!-- Legs in dynamic Dhemsa step -->
      <path d="M338 414.42480034553216 L332 440.42480034553216 L324 444.42480034553216" stroke="#fcd34d" stroke-width="3.5" stroke-linecap="round" fill="none" />
      <path d="M350 414.42480034553216 L360 436.42480034553216 L352 444.42480034553216" stroke="#fcd34d" stroke-width="3.5" stroke-linecap="round" fill="none" />
      <!-- Linked arms -->
      <path d="M332 390.42480034553216 Q316 382.42480034553216 302 390.42480034553216" stroke="#fef08a" stroke-width="3" stroke-linecap="round" fill="none" opacity="0.8" />
    
      <!-- Dancer 8 -->
      <circle cx="386" cy="333.39859045820594" r="9" fill="#fcd34d" opacity="0.9" />
      <path d="M386 342.39859045820594 L372 397.39859045820594 L400 397.39859045820594 Z" fill="#f59e0b" opacity="0.85"/>
      <path d="M386 397.39859045820594 L374 423.39859045820594 L398 423.39859045820594 Z" fill="#d97706" opacity="0.85"/>
      <!-- Legs in dynamic Dhemsa step -->
      <path d="M380 423.39859045820594 L374 449.39859045820594 L366 453.39859045820594" stroke="#fcd34d" stroke-width="3.5" stroke-linecap="round" fill="none" />
      <path d="M392 423.39859045820594 L402 445.39859045820594 L394 453.39859045820594" stroke="#fcd34d" stroke-width="3.5" stroke-linecap="round" fill="none" />
      <!-- Linked arms -->
      <path d="M374 399.39859045820594 Q358 391.39859045820594 344 399.39859045820594" stroke="#fef08a" stroke-width="3" stroke-linecap="round" fill="none" opacity="0.8" />
    
      <!-- Dancer 9 -->
      <circle cx="428" cy="341.5240143661898" r="9" fill="#fcd34d" opacity="0.9" />
      <path d="M428 350.5240143661898 L414 405.5240143661898 L442 405.5240143661898 Z" fill="#f59e0b" opacity="0.85"/>
      <path d="M428 405.5240143661898 L416 431.5240143661898 L440 431.5240143661898 Z" fill="#d97706" opacity="0.85"/>
      <!-- Legs in dynamic Dhemsa step -->
      <path d="M422 431.5240143661898 L416 457.5240143661898 L408 461.5240143661898" stroke="#fcd34d" stroke-width="3.5" stroke-linecap="round" fill="none" />
      <path d="M434 431.5240143661898 L444 453.5240143661898 L436 461.5240143661898" stroke="#fcd34d" stroke-width="3.5" stroke-linecap="round" fill="none" />
      <!-- Linked arms -->
      <path d="M416 407.5240143661898 Q400 399.5240143661898 386 407.5240143661898" stroke="#fef08a" stroke-width="3" stroke-linecap="round" fill="none" opacity="0.8" />
    
      <!-- Dancer 10 -->
      <circle cx="470" cy="343.8722989594806" r="9" fill="#fcd34d" opacity="0.9" />
      <path d="M470 352.8722989594806 L456 407.8722989594806 L484 407.8722989594806 Z" fill="#f59e0b" opacity="0.85"/>
      <path d="M470 407.8722989594806 L458 433.8722989594806 L482 433.8722989594806 Z" fill="#d97706" opacity="0.85"/>
      <!-- Legs in dynamic Dhemsa step -->
      <path d="M464 433.8722989594806 L458 459.8722989594806 L450 463.8722989594806" stroke="#fcd34d" stroke-width="3.5" stroke-linecap="round" fill="none" />
      <path d="M476 433.8722989594806 L486 455.8722989594806 L478 463.8722989594806" stroke="#fcd34d" stroke-width="3.5" stroke-linecap="round" fill="none" />
      <!-- Linked arms -->
      <path d="M458 409.8722989594806 Q442 401.8722989594806 428 409.8722989594806" stroke="#fef08a" stroke-width="3" stroke-linecap="round" fill="none" opacity="0.8" />
    
      <!-- Dancer 11 -->
      <circle cx="512" cy="339.01900631470113" r="9" fill="#fcd34d" opacity="0.9" />
      <path d="M512 348.01900631470113 L498 403.01900631470113 L526 403.01900631470113 Z" fill="#f59e0b" opacity="0.85"/>
      <path d="M512 403.01900631470113 L500 429.01900631470113 L524 429.01900631470113 Z" fill="#d97706" opacity="0.85"/>
      <!-- Legs in dynamic Dhemsa step -->
      <path d="M506 429.01900631470113 L500 455.01900631470113 L492 459.01900631470113" stroke="#fcd34d" stroke-width="3.5" stroke-linecap="round" fill="none" />
      <path d="M518 429.01900631470113 L528 451.01900631470113 L520 459.01900631470113" stroke="#fcd34d" stroke-width="3.5" stroke-linecap="round" fill="none" />
      <!-- Linked arms -->
      <path d="M500 405.01900631470113 Q484 397.01900631470113 470 405.01900631470113" stroke="#fef08a" stroke-width="3" stroke-linecap="round" fill="none" opacity="0.8" />
    
      <!-- Dancer 12 -->
      <circle cx="554" cy="329.9080786253242" r="9" fill="#fcd34d" opacity="0.9" />
      <path d="M554 338.9080786253242 L540 393.9080786253242 L568 393.9080786253242 Z" fill="#f59e0b" opacity="0.85"/>
      <path d="M554 393.9080786253242 L542 419.9080786253242 L566 419.9080786253242 Z" fill="#d97706" opacity="0.85"/>
      <!-- Legs in dynamic Dhemsa step -->
      <path d="M548 419.9080786253242 L542 445.9080786253242 L534 449.9080786253242" stroke="#fcd34d" stroke-width="3.5" stroke-linecap="round" fill="none" />
      <path d="M560 419.9080786253242 L570 441.9080786253242 L562 449.9080786253242" stroke="#fcd34d" stroke-width="3.5" stroke-linecap="round" fill="none" />
      <!-- Linked arms -->
      <path d="M542 395.9080786253242 Q526 387.9080786253242 512 395.9080786253242" stroke="#fef08a" stroke-width="3" stroke-linecap="round" fill="none" opacity="0.8" />
    
      <!-- Dancer 13 -->
      <circle cx="596" cy="322.06608237097214" r="9" fill="#fcd34d" opacity="0.9" />
      <path d="M596 331.06608237097214 L582 386.06608237097214 L610 386.06608237097214 Z" fill="#f59e0b" opacity="0.85"/>
      <path d="M596 386.06608237097214 L584 412.06608237097214 L608 412.06608237097214 Z" fill="#d97706" opacity="0.85"/>
      <!-- Legs in dynamic Dhemsa step -->
      <path d="M590 412.06608237097214 L584 438.06608237097214 L576 442.06608237097214" stroke="#fcd34d" stroke-width="3.5" stroke-linecap="round" fill="none" />
      <path d="M602 412.06608237097214 L612 434.06608237097214 L604 442.06608237097214" stroke="#fcd34d" stroke-width="3.5" stroke-linecap="round" fill="none" />
      <!-- Linked arms -->
      <path d="M584 388.06608237097214 Q568 380.06608237097214 554 388.06608237097214" stroke="#fef08a" stroke-width="3" stroke-linecap="round" fill="none" opacity="0.8" />
    
  </g>

  <!-- Traditional Drums Silhouettes at Foreground -->
  <!-- Tamak Drum -->
  <path d="M120 480 Q160 460 200 480 L180 540 Q160 555 140 540 Z" fill="#2d120c" stroke="#d97706" stroke-width="2.5" />
  <ellipse cx="160" cy="478" rx="40" ry="12" fill="#b45309" stroke="#fbbf24" stroke-width="2" />
  <!-- Drum sticks -->
  <line x1="125" y1="460" x2="155" y2="475" stroke="#fcd34d" stroke-width="3" stroke-linecap="round" />
  <line x1="195" y1="460" x2="165" y2="475" stroke="#fcd34d" stroke-width="3" stroke-linecap="round" />

  <!-- Nishan Drum -->
  <path d="M400 480 Q440 465 480 480 L460 545 Q440 560 420 545 Z" fill="#2d120c" stroke="#d97706" stroke-width="2.5" />
  <ellipse cx="440" cy="478" rx="40" ry="12" fill="#854d0e" stroke="#fbbf24" stroke-width="2" />
  <!-- Nishan horns/crest -->
  <path d="M420 470 C410 440 395 425 380 420" stroke="#f59e0b" stroke-width="3" fill="none" stroke-linecap="round" />
  <path d="M460 470 C470 440 485 425 500 420" stroke="#f59e0b" stroke-width="3" fill="none" stroke-linecap="round" />

  <!-- Frame border with Koraput tribal triangles -->
  <rect x="18" y="18" width="564" height="564" fill="none" stroke="#f59e0b" stroke-width="2.5" opacity="0.75" />
  <rect x="26" y="26" width="548" height="548" fill="none" stroke="#d97706" stroke-width="1" opacity="0.4" stroke-dasharray="4 4" />
  <text x="300" y="580" text-anchor="middle" fill="#fcd34d" font-family="Cinzel, serif, Georgia" font-size="12" letter-spacing="4" opacity="0.8">KORAPUT • CHOKDA DHEMSA</text>
</svg>